<?xml version="1.0" encoding="utf-8"?>
<svg xmlns="http://www.w3.org/2000/svg" xmlns:xlink="http://www.w3.org/1999/xlink" width="600" height="400" viewBox="0 0 2400 1600">
<defs>
  <clipPath id="clip1700">
    <rect x="0" y="0" width="2400" height="1600"/>
  </clipPath>
</defs>
<path clip-path="url(#clip1700)" d="
M0 1600 L2400 1600 L2400 0 L0 0  Z
  " fill="#ffffff" fill-rule="evenodd" fill-opacity="1"/>
<defs>
  <clipPath id="clip1701">
    <rect x="480" y="0" width="1681" height="1600"/>
  </clipPath>
</defs>
<path clip-path="url(#clip1700)" d="
M242.516 1425.62 L2352.76 1425.62 L2352.76 121.675 L242.516 121.675  Z
  " fill="#ffffff" fill-rule="evenodd" fill-opacity="1"/>
<defs>
  <clipPath id="clip1702">
    <rect x="242" y="121" width="2111" height="1305"/>
  </clipPath>
</defs>
<polyline clip-path="url(#clip1702)" style="stroke:#000000; stroke-width:2; stroke-opacity:0.1; fill:none" points="
  302.24,1425.62 302.24,121.675 
  "/>
<polyline clip-path="url(#clip1702)" style="stroke:#000000; stroke-width:2; stroke-opacity:0.1; fill:none" points="
  799.938,1425.62 799.938,121.675 
  "/>
<polyline clip-path="url(#clip1702)" style="stroke:#000000; stroke-width:2; stroke-opacity:0.1; fill:none" points="
  1297.64,1425.62 1297.64,121.675 
  "/>
<polyline clip-path="url(#clip1702)" style="stroke:#000000; stroke-width:2; stroke-opacity:0.1; fill:none" points="
  1795.33,1425.62 1795.33,121.675 
  "/>
<polyline clip-path="url(#clip1702)" style="stroke:#000000; stroke-width:2; stroke-opacity:0.1; fill:none" points="
  2293.03,1425.62 2293.03,121.675 
  "/>
<polyline clip-path="url(#clip1702)" style="stroke:#000000; stroke-width:2; stroke-opacity:0.1; fill:none" points="
  242.516,1388.71 2352.76,1388.71 
  "/>
<polyline clip-path="url(#clip1702)" style="stroke:#000000; stroke-width:2; stroke-opacity:0.1; fill:none" points="
  242.516,1081.18 2352.76,1081.18 
  "/>
<polyline clip-path="url(#clip1702)" style="stroke:#000000; stroke-width:2; stroke-opacity:0.1; fill:none" points="
  242.516,773.647 2352.76,773.647 
  "/>
<polyline clip-path="url(#clip1702)" style="stroke:#000000; stroke-width:2; stroke-opacity:0.1; fill:none" points="
  242.516,466.113 2352.76,466.113 
  "/>
<polyline clip-path="url(#clip1702)" style="stroke:#000000; stroke-width:2; stroke-opacity:0.1; fill:none" points="
  242.516,158.579 2352.76,158.579 
  "/>
<polyline clip-path="url(#clip1700)" style="stroke:#000000; stroke-width:4; stroke-opacity:1; fill:none" points="
  242.516,1425.62 2352.76,1425.62 
  "/>
<polyline clip-path="url(#clip1700)" style="stroke:#000000; stroke-width:4; stroke-opacity:1; fill:none" points="
  242.516,1425.62 242.516,121.675 
  "/>
<polyline clip-path="url(#clip1700)" style="stroke:#000000; stroke-width:4; stroke-opacity:1; fill:none" points="
  302.24,1425.62 302.24,1406.06 
  "/>
<polyline clip-path="url(#clip1700)" style="stroke:#000000; stroke-width:4; stroke-opacity:1; fill:none" points="
  799.938,1425.62 799.938,1406.06 
  "/>
<polyline clip-path="url(#clip1700)" style="stroke:#000000; stroke-width:4; stroke-opacity:1; fill:none" points="
  1297.64,1425.62 1297.64,1406.06 
  "/>
<polyline clip-path="url(#clip1700)" style="stroke:#000000; stroke-width:4; stroke-opacity:1; fill:none" points="
  1795.33,1425.62 1795.33,1406.06 
  "/>
<polyline clip-path="url(#clip1700)" style="stroke:#000000; stroke-width:4; stroke-opacity:1; fill:none" points="
  2293.03,1425.62 2293.03,1406.06 
  "/>
<polyline clip-path="url(#clip1700)" style="stroke:#000000; stroke-width:4; stroke-opacity:1; fill:none" points="
  242.516,1388.71 274.17,1388.71 
  "/>
<polyline clip-path="url(#clip1700)" style="stroke:#000000; stroke-width:4; stroke-opacity:1; fill:none" points="
  242.516,1081.18 274.17,1081.18 
  "/>
<polyline clip-path="url(#clip1700)" style="stroke:#000000; stroke-width:4; stroke-opacity:1; fill:none" points="
  242.516,773.647 274.17,773.647 
  "/>
<polyline clip-path="url(#clip1700)" style="stroke:#000000; stroke-width:4; stroke-opacity:1; fill:none" points="
  242.516,466.113 274.17,466.113 
  "/>
<polyline clip-path="url(#clip1700)" style="stroke:#000000; stroke-width:4; stroke-opacity:1; fill:none" points="
  242.516,158.579 274.17,158.579 
  "/>
<g clip-path="url(#clip1700)">
<text style="fill:#000000; fill-opacity:1; font-family:Arial,Helvetica Neue,Helvetica,sans-serif; font-size:48px; text-anchor:middle;" transform="rotate(0, 302.24, 1479.62)" x="302.24" y="1479.62">0.00</text>
</g>
<g clip-path="url(#clip1700)">
<text style="fill:#000000; fill-opacity:1; font-family:Arial,Helvetica Neue,Helvetica,sans-serif; font-size:48px; text-anchor:middle;" transform="rotate(0, 799.938, 1479.62)" x="799.938" y="1479.62">0.25</text>
</g>
<g clip-path="url(#clip1700)">
<text style="fill:#000000; fill-opacity:1; font-family:Arial,Helvetica Neue,Helvetica,sans-serif; font-size:48px; text-anchor:middle;" transform="rotate(0, 1297.64, 1479.62)" x="1297.64" y="1479.62">0.50</text>
</g>
<g clip-path="url(#clip1700)">
<text style="fill:#000000; fill-opacity:1; font-family:Arial,Helvetica Neue,Helvetica,sans-serif; font-size:48px; text-anchor:middle;" transform="rotate(0, 1795.33, 1479.62)" x="1795.33" y="1479.62">0.75</text>
</g>
<g clip-path="url(#clip1700)">
<text style="fill:#000000; fill-opacity:1; font-family:Arial,Helvetica Neue,Helvetica,sans-serif; font-size:48px; text-anchor:middle;" transform="rotate(0, 2293.03, 1479.62)" x="2293.03" y="1479.62">1.00</text>
</g>
<g clip-path="url(#clip1700)">
<text style="fill:#000000; fill-opacity:1; font-family:Arial,Helvetica Neue,Helvetica,sans-serif; font-size:48px; text-anchor:end;" transform="rotate(0, 218.516, 1406.21)" x="218.516" y="1406.21">0.00</text>
</g>
<g clip-path="url(#clip1700)">
<text style="fill:#000000; fill-opacity:1; font-family:Arial,Helvetica Neue,Helvetica,sans-serif; font-size:48px; text-anchor:end;" transform="rotate(0, 218.516, 1098.68)" x="218.516" y="1098.68">0.25</text>
</g>
<g clip-path="url(#clip1700)">
<text style="fill:#000000; fill-opacity:1; font-family:Arial,Helvetica Neue,Helvetica,sans-serif; font-size:48px; text-anchor:end;" transform="rotate(0, 218.516, 791.147)" x="218.516" y="791.147">0.50</text>
</g>
<g clip-path="url(#clip1700)">
<text style="fill:#000000; fill-opacity:1; font-family:Arial,Helvetica Neue,Helvetica,sans-serif; font-size:48px; text-anchor:end;" transform="rotate(0, 218.516, 483.613)" x="218.516" y="483.613">0.75</text>
</g>
<g clip-path="url(#clip1700)">
<text style="fill:#000000; fill-opacity:1; font-family:Arial,Helvetica Neue,Helvetica,sans-serif; font-size:48px; text-anchor:end;" transform="rotate(0, 218.516, 176.079)" x="218.516" y="176.079">1.00</text>
</g>
<g clip-path="url(#clip1700)">
<text style="fill:#000000; fill-opacity:1; font-family:Arial,Helvetica Neue,Helvetica,sans-serif; font-size:84px; text-anchor:middle;" transform="rotate(0, 1297.64, 73.2)" x="1297.64" y="73.2">ROC</text>
</g>
<g clip-path="url(#clip1700)">
<text style="fill:#000000; fill-opacity:1; font-family:Arial,Helvetica Neue,Helvetica,sans-serif; font-size:66px; text-anchor:middle;" transform="rotate(0, 1297.64, 1559.48)" x="1297.64" y="1559.48">False positive rate</text>
</g>
<g clip-path="url(#clip1700)">
<text style="fill:#000000; fill-opacity:1; font-family:Arial,Helvetica Neue,Helvetica,sans-serif; font-size:66px; text-anchor:middle;" transform="rotate(-90, 89.2861, 773.647)" x="89.2861" y="773.647">True positive rate</text>
</g>
<polyline clip-path="url(#clip1702)" style="stroke:#009af9; stroke-width:4; stroke-opacity:1; fill:none" points="
  2293.03,158.579 2292.63,158.579 
  
  2292.23,158.579 2291.43,158.579 2291.02,158.579 
  2290.62,158.579 2290.22,158.579 2289.82,158.579 2289.42,158.579 2288.62,158.579 
  2288.21,158.579 2287.41,158.579 2287.01,158.579 2286.61,158.579 2286.21,158.579 2285.8,158.579 2285,158.579 2284.2,158.579 
  2283.4,158.579 2282.99,158.579 2282.19,158.579 2281.39,158.579 2280.18,158.579 2279.78,158.579 2277.77,158.579 
  2276.97,158.579 2276.17,158.579 2275.77,158.579 2275.36,158.579 2274.56,158.579 2272.15,158.579 2271.35,158.579 2270.55,158.579 2270.14,158.579 2268.54,158.579 
  2267.33,158.579 2265.73,158.579 2264.92,158.579 2263.32,158.579 2262.52,158.579 2260.91,158.579 2259.71,158.579 2258.5,158.579 2256.89,158.579 
  2255.69,158.579 2254.08,158.579 2251.27,158.579 2250.47,158.579 2247.26,158.579 2245.25,158.579 2242.84,158.579 2241.23,158.579 2238.83,158.579 2238.02,158.579 
  2236.01,158.579 2234.41,158.579 2233.2,158.579 2232.8,158.579 2230.39,158.579 2229.59,158.579 2226.78,158.579 2224.77,158.579 2222.76,158.579 2222.36,158.579 
  2219.95,158.579 2217.95,158.579 2216.74,158.579 2215.14,158.579 2211.52,158.579 2208.71,158.579 2206.7,158.579 2204.29,158.579 2199.07,158.579 2198.27,158.579 
  2194.26,158.579 2191.44,158.579 2188.23,158.579 2185.02,158.579 2180.6,158.579 2176.99,158.579 2174.58,158.579 2172.17,158.579 2168.56,158.579 2166.55,158.579 
  2164.54,158.579 2159.72,158.579 2155.31,158.579 2151.69,158.579 2145.67,158.579 2142.46,158.579 2139.65,158.579 2137.24,158.579 2132.82,158.579 2129.21,158.579 
  2126.4,158.579 2123.99,158.579 2121.58,158.579 2117.16,158.579 2113.55,158.579 2110.34,158.579 2105.52,158.579 2101.5,158.579 2097.08,158.579 2093.47,158.579 
  2090.26,158.579 2087.45,158.579 2083.03,158.579 2080.22,158.579 2077.81,158.579 2073.8,158.579 2070.99,158.579 2066.97,158.579 2064.56,158.579 2062.15,158.579 
  2058.54,158.579 2056.13,158.579 2055.73,158.579 2051.31,158.579 2049.7,158.579 2045.29,158.579 2043.68,158.579 2039.67,158.579 2035.65,158.579 2031.64,158.579 
  2028.82,158.579 2024.81,158.579 2022.4,158.579 2019.19,158.579 2015.57,158.579 2010.35,158.579 2007.94,158.579 2003.93,158.579 2001.92,158.579 1999.11,158.579 
  1997.91,158.579 1994.69,158.579 1992.29,158.579 1989.47,158.579 1986.66,158.579 1984.66,158.579 1980.24,158.579 1975.02,158.579 1973.41,158.579 1971.81,158.579 
  1969.4,158.579 1966.19,158.579 1962.57,158.579 1960.97,158.579 1958.16,158.579 1956.95,158.579 1955.34,158.579 1953.74,158.579 1952.94,158.579 1950.53,158.579 
  1947.72,158.579 1944.1,158.579 1941.29,158.579 1938.08,158.579 1936.87,158.579 1934.46,158.579 1932.86,158.579 1930.05,158.579 1927.64,158.579 1924.83,158.579 
  1921.62,158.579 1920.01,158.579 1918.4,158.579 1915.19,158.579 1912.38,158.579 1909.97,158.579 1908.77,158.579 1907.96,158.579 1906.36,158.579 1903.15,158.579 
  1901.94,158.579 1897.52,158.579 1895.52,158.579 1893.11,158.579 1891.5,158.579 1889.89,158.579 1888.29,158.579 1885.48,158.579 1883.07,158.579 1879.45,158.579 
  1877.45,158.579 1875.04,158.579 1872.63,158.579 1869.02,158.579 1866.61,158.579 1863.39,158.579 1861.39,187.868 1858.17,187.868 1854.96,187.868 1852.55,187.868 
  1847.73,187.868 1844.92,187.868 1839.3,187.868 1836.89,217.157 1835.29,217.157 1831.67,217.157 1826.05,217.157 1822.84,217.157 1815.61,217.157 1812.8,217.157 
  1808.38,217.157 1804.77,217.157 1800.35,217.157 1795.94,217.157 1791.12,217.157 1787.91,217.157 1781.88,217.157 1777.87,217.157 1776.26,217.157 1771.84,217.157 
  1768.23,217.157 1763.41,217.157 1756.99,217.157 1746.55,246.446 1739.72,246.446 1733.7,246.446 1726.07,246.446 1719.65,246.446 1713.62,275.735 1703.58,275.735 
  1695.96,275.735 1687.12,275.735 1680.7,275.735 1673.07,305.024 1661.02,305.024 1652.99,334.313 1643.76,363.602 1634.12,363.602 1627.29,363.602 1618.06,363.602 
  1610.83,363.602 1605.21,363.602 1595.97,363.602 1585.53,363.602 1577.1,363.602 1569.87,363.602 1552.21,392.891 1540.16,422.18 1524.1,422.18 1515.27,451.469 
  1503.62,451.469 1490.37,451.469 1479.53,451.469 1469.49,451.469 1457.45,451.469 1444.2,451.469 1430.54,451.469 1414.08,451.469 1398.02,451.469 1383.97,451.469 
  1371.52,451.469 1358.67,480.758 1342.61,480.758 1330.56,480.758 1320.52,480.758 1306.07,480.758 1288.8,480.758 1274.35,480.758 1258.69,480.758 1248.25,480.758 
  1231.38,480.758 1215.72,510.046 1198.46,510.046 1186.41,510.046 1174.37,510.046 1159.91,510.046 1151.48,510.046 1135.82,539.335 1120.16,539.335 1105.7,539.335 
  1090.45,568.624 1074.79,568.624 1054.71,568.624 1040.66,568.624 1028.21,568.624 1015.36,568.624 1002.51,568.624 988.056,568.624 979.623,568.624 967.176,568.624 
  954.728,568.624 940.675,568.624 930.235,597.913 917.788,597.913 904.939,627.202 893.696,627.202 876.831,627.202 864.384,627.202 850.732,627.202 836.277,656.491 
  825.435,656.491 809.776,656.491 792.51,656.491 778.858,656.491 767.615,656.491 753.963,656.491 739.508,656.491 724.651,656.491 708.991,656.491 695.741,685.78 
  683.293,685.78 670.043,685.78 658.8,685.78 647.557,685.78 635.913,715.069 625.874,715.069 613.828,715.069 604.593,744.358 592.949,744.358 583.714,744.358 
  574.478,744.358 560.826,744.358 551.591,744.358 542.757,744.358 530.711,744.358 519.469,744.358 511.036,744.358 499.392,744.358 491.361,744.358 482.126,744.358 
  472.891,744.358 466.868,744.358 462.853,773.647 457.633,773.647 451.61,773.647 443.579,773.647 436.753,773.647 430.329,773.647 423.503,773.647 419.086,773.647 
  412.661,773.647 407.441,773.647 403.025,773.647 401.017,802.936 398.206,832.225 391.782,832.225 388.168,832.225 384.153,832.225 377.327,832.225 374.114,832.225 
  371.304,832.225 367.69,832.225 363.273,832.225 360.864,832.225 357.651,832.225 355.242,832.225 352.432,832.225 349.621,890.803 346.81,890.803 342.795,890.803 
  339.181,920.092 337.173,920.092 334.363,920.092 332.757,920.092 331.15,920.092 328.741,920.092 327.537,920.092 325.529,920.092 324.324,920.092 322.317,920.092 
  320.309,920.092 319.908,920.092 319.104,920.092 318.301,920.092 315.892,920.092 315.089,920.092 314.286,920.092 313.885,920.092 313.082,920.092 
  312.68,920.092 312.278,920.092 311.877,920.092 311.877,978.669 311.074,1007.96 309.869,1007.96 308.665,1007.96 308.665,1037.25 307.862,1037.25 
  307.46,1037.25 305.854,1037.25 305.051,1037.25 304.649,1037.25 304.248,1037.25 303.846,1037.25 303.445,1037.25 
  303.043,1037.25 303.043,1066.54 302.642,1066.54 302.642,1095.83 302.642,1125.11 
  302.24,1125.11 302.24,1154.4 
  302.24,1183.69 302.24,1242.27 
  302.24,1271.56 302.24,1300.85 302.24,1330.14 
  302.24,1359.43 
  
  
  
  "/>
<polyline clip-path="url(#clip1702)" style="stroke:#e26f46; stroke-width:4; stroke-opacity:1; fill:none" points="
  2293.03,158.579 927.826,422.18 918.992,422.18 912.166,422.18 906.545,422.18 898.113,422.18 890.082,422.18 882.453,422.18 874.824,422.18 863.581,422.18 
  854.346,422.18 848.724,422.18 843.103,422.18 836.678,422.18 828.246,422.18 820.617,422.18 811.382,422.18 805.76,422.18 796.927,422.18 786.085,422.18 
  780.865,422.18 770.827,422.18 763.198,422.18 756.774,422.18 746.334,422.18 738.303,422.18 728.666,422.18 720.234,422.18 716.62,422.18 709.794,422.18 
  701.362,422.18 695.741,422.18 688.915,422.18 684.899,422.18 678.475,422.18 671.649,422.18 663.618,422.18 656.391,422.18 651.171,451.469 643.943,451.469 
  638.723,451.469 630.693,451.469 623.465,451.469 615.836,451.469 611.419,451.469 604.593,451.469 597.366,451.469 590.941,451.469 587.729,451.469 581.706,480.758 
  578.092,480.758 571.266,480.758 564.842,480.758 559.622,480.758 551.591,480.758 545.568,480.758 539.545,480.758 535.128,480.758 529.908,480.758 525.893,480.758 
  521.075,480.758 517.862,480.758 513.847,480.758 510.233,480.758 507.423,480.758 503.407,480.758 500.195,480.758 496.983,480.758 494.172,510.046 491.361,510.046 
  488.551,539.335 486.945,539.335 482.126,539.335 480.119,568.624 475.702,568.624 472.489,597.913 469.679,597.913 466.868,597.913 463.656,597.913 461.648,597.913 
  459.239,597.913 455.224,597.913 453.617,597.913 449.201,597.913 448.398,597.913 445.185,597.913 441.17,597.913 439.564,597.913 437.958,597.913 436.352,597.913 
  432.336,597.913 430.329,597.913 425.912,597.913 424.306,627.202 423.503,627.202 421.896,627.202 421.093,627.202 419.889,627.202 419.086,627.202 418.684,627.202 
  417.078,656.491 415.472,656.491 414.669,656.491 413.464,656.491 413.063,656.491 412.661,715.069 411.457,715.069 411.055,715.069 410.252,715.069 
  409.851,715.069 409.449,715.069 407.843,715.069 406.638,715.069 405.434,715.069 404.229,715.069 403.426,715.069 402.623,715.069 401.418,715.069 
  400.214,715.069 399.009,715.069 398.206,715.069 397.002,715.069 395.395,715.069 394.191,715.069 394.191,744.358 392.585,773.647 
  391.782,802.936 390.979,832.225 388.569,832.225 388.168,861.514 387.365,861.514 386.562,861.514 385.759,861.514 383.349,861.514 
  382.948,861.514 382.546,861.514 382.145,861.514 381.743,861.514 380.539,861.514 379.736,861.514 379.334,861.514 378.13,861.514 377.728,861.514 
  377.327,861.514 376.925,861.514 376.523,861.514 376.122,861.514 
  375.319,861.514 374.114,861.514 373.713,861.514 373.311,861.514 372.508,861.514 371.705,890.803 370.902,890.803 370.099,890.803 
  369.296,890.803 368.894,890.803 368.493,890.803 367.288,890.803 366.485,890.803 364.879,890.803 
  364.076,890.803 363.674,890.803 362.871,890.803 362.068,890.803 360.061,890.803 359.659,890.803 
  358.856,890.803 358.455,890.803 357.651,890.803 356.447,890.803 356.045,890.803 355.644,890.803 354.841,890.803 354.439,890.803 
  354.038,890.803 353.636,890.803 352.432,890.803 352.03,890.803 351.629,890.803 349.621,890.803 349.219,920.092 
  348.818,920.092 348.416,920.092 347.613,920.092 347.212,920.092 346.81,920.092 346.007,920.092 
  345.606,920.092 344.802,920.092 344.401,920.092 343.196,920.092 342.795,920.092 341.59,920.092 
  341.189,920.092 340.787,920.092 340.386,920.092 339.984,920.092 339.583,920.092 339.181,920.092 338.78,920.092 
  338.378,920.092 337.976,920.092 337.575,920.092 336.772,920.092 336.37,920.092 335.969,920.092 335.567,920.092 
  335.166,920.092 333.961,920.092 333.158,920.092 331.15,920.092 330.749,920.092 330.347,920.092 
  329.946,920.092 329.544,920.092 329.143,920.092 327.938,920.092 327.537,920.092 327.135,920.092 326.734,920.092 326.332,920.092 
  325.529,920.092 325.127,920.092 324.726,920.092 324.324,920.092 
  323.923,920.092 323.521,920.092 323.12,920.092 322.718,920.092 
  321.915,920.092 321.514,949.38 320.711,949.38 320.309,949.38 319.506,978.669 319.104,978.669 
  318.703,978.669 318.301,978.669 317.9,978.669 316.695,978.669 316.294,978.669 
  315.892,978.669 315.491,978.669 315.089,978.669 314.286,978.669 313.483,978.669 313.082,978.669 
  313.082,1007.96 312.68,1007.96 312.278,1007.96 311.877,1007.96 311.877,1037.25 311.475,1037.25 
  311.074,1037.25 310.672,1037.25 310.271,1037.25 
  309.468,1037.25 309.066,1037.25 308.665,1037.25 308.263,1037.25 307.862,1037.25 
  307.862,1066.54 307.46,1066.54 307.059,1066.54 306.657,1066.54 
  306.255,1095.83 305.854,1095.83 305.854,1125.11 
  305.452,1125.11 305.051,1125.11 304.649,1125.11 
  304.248,1125.11 303.846,1125.11 
  303.846,1154.4 303.846,1183.69 303.445,1183.69 303.043,1183.69 303.043,1212.98 
  303.043,1242.27 302.642,1242.27 
  302.642,1271.56 
  302.24,1271.56 302.24,1300.85 
  302.24,1330.14 
  
  
  
  302.24,1359.43 
  
  
  
  "/>
<polyline clip-path="url(#clip1702)" style="stroke:#3da44d; stroke-width:4; stroke-opacity:1; fill:none" points="
  2293.03,158.579 2292.63,158.579 
  
  2292.23,158.579 
  2291.83,158.579 
  
  2291.43,158.579 2291.02,158.579 2290.62,158.579 
  2290.22,158.579 
  2289.82,158.579 2289.42,158.579 2289.02,158.579 2287.81,158.579 2287.41,158.579 
  2287.01,158.579 2286.61,158.579 2285.8,158.579 2285.4,158.579 2285,158.579 2283.8,158.579 2283.4,158.579 
  2282.59,158.579 2282.19,158.579 2281.79,158.579 2280.18,158.579 2279.78,158.579 2279.38,158.579 2278.98,158.579 2278.58,158.579 2278.58,187.868 2276.57,187.868 
  2274.96,187.868 2274.16,187.868 2272.55,187.868 2271.35,187.868 2269.34,187.868 2268.54,187.868 2267.74,187.868 2265.73,187.868 2264.52,187.868 
  2262.11,187.868 2260.91,187.868 2257.7,187.868 2256.09,187.868 2255.69,187.868 2254.89,187.868 2252.88,187.868 2250.07,187.868 2248.86,187.868 2247.26,187.868 
  2246.05,187.868 2244.85,187.868 2242.04,187.868 2241.23,187.868 2240.43,187.868 2238.02,187.868 2234.81,187.868 2232.8,187.868 2231.2,187.868 
  2229.19,187.868 2225.98,187.868 2223.17,187.868 2219.95,187.868 2217.54,187.868 2215.14,187.868 2213.53,187.868 2211.92,187.868 2208.31,187.868 2205.5,217.157 
  2200.68,217.157 2198.67,217.157 2195.86,217.157 2190.64,217.157 2188.63,217.157 2184.22,217.157 2178.6,217.157 2174.58,217.157 2172.97,217.157 2168.16,217.157 
  2162.13,217.157 2158.12,246.446 2154.5,246.446 2150.09,246.446 2146.47,246.446 2140.05,246.446 2136.03,246.446 2130.01,246.446 2123.99,246.446 2121.18,246.446 
  2113.15,246.446 2107.12,246.446 2101.5,246.446 2096.28,275.735 2091.46,275.735 2087.05,275.735 2077.41,275.735 2072.19,275.735 2066.97,275.735 2061.75,275.735 
  2054.92,275.735 2046.09,275.735 2039.26,305.024 2031.23,305.024 2022.4,305.024 2015.57,305.024 2011.16,305.024 2004.33,305.024 1995.5,305.024 1988.27,305.024 
  1981.44,305.024 1976.63,305.024 1969.4,305.024 1962.57,305.024 1957.35,305.024 1948.52,305.024 1939.68,305.024 1928.84,305.024 1919.21,305.024 1913.99,305.024 
  1904.75,305.024 1901.14,305.024 1893.51,305.024 1882.27,305.024 1871.42,305.024 1862.19,305.024 1854.56,305.024 1847.73,305.024 1838.9,334.313 1829.67,334.313 
  1817.62,334.313 1806.38,334.313 1796.74,334.313 1787.1,334.313 1774.25,334.313 1763.81,334.313 1753.78,334.313 1745.75,334.313 1736.11,334.313 1726.87,334.313 
  1714.02,334.313 1703.58,334.313 1688.73,334.313 1680.3,334.313 1667.45,334.313 1655.8,334.313 1644.16,334.313 1633.32,334.313 1620.07,334.313 1608.02,334.313 
  1597.58,334.313 1584.33,334.313 1571.48,334.313 1559.03,334.313 1542.17,334.313 1532.13,334.313 1522.49,334.313 1510.05,334.313 1494.79,334.313 1484.35,334.313 
  1469.09,392.891 1457.04,392.891 1444.6,451.469 1432.15,451.469 1416.89,451.469 1404.04,451.469 1390.39,451.469 1377.14,451.469 1367.1,480.758 1354.25,480.758 
  1345.02,480.758 1330.16,480.758 1314.1,510.046 1300.85,539.335 1286.79,539.335 1272.34,539.335 1259.09,539.335 1247.04,539.335 1235,539.335 1222.55,539.335 
  1208.5,539.335 1196.05,597.913 1184.4,627.202 1169.55,627.202 1155.09,627.202 1146.66,627.202 1137.02,627.202 1125.78,627.202 1110.12,627.202 1100.08,627.202 
  1090.04,685.78 1082.42,685.78 1067.56,685.78 1058.73,685.78 1048.29,685.78 1038.25,685.78 1023.39,715.069 1014.16,715.069 1003.72,715.069 997.692,715.069 
  984.442,715.069 971.191,744.358 959.145,744.358 947.099,744.358 936.66,744.358 928.227,744.358 916.181,744.358 902.931,744.358 892.09,744.358 884.862,744.358 
  878.438,744.358 867.998,744.358 859.566,773.647 848.323,773.647 839.087,773.647 831.86,773.647 825.034,773.647 816.602,773.647 806.162,802.936 796.525,802.936 
  789.298,802.936 778.858,802.936 767.615,802.936 758.38,802.936 752.357,802.936 742.318,802.936 734.288,802.936 727.863,802.936 724.651,802.936 716.219,802.936 
  706.181,802.936 700.961,832.225 694.135,861.514 685.301,890.803 675.664,890.803 668.035,890.803 659.603,890.803 655.989,890.803 647.959,890.803 643.14,890.803 
  639.125,890.803 635.11,920.092 630.291,920.092 623.064,920.092 615.836,920.092 609.412,920.092 604.995,920.092 597.767,978.669 592.146,978.669 586.123,978.669 
  581.706,1007.96 575.281,1007.96 570.062,1007.96 564.842,1007.96 560.425,1007.96 555.606,1007.96 549.583,1007.96 545.568,1007.96 541.954,1007.96 538.742,1007.96 
  532.719,1007.96 527.901,1007.96 522.681,1037.25 519.469,1037.25 516.256,1037.25 513.847,1037.25 511.839,1037.25 509.832,1037.25 507.021,1037.25 502.604,1066.54 
  498.99,1066.54 494.172,1066.54 490.558,1066.54 486.543,1066.54 482.929,1066.54 480.119,1066.54 477.709,1066.54 475.3,1066.54 472.891,1066.54 469.679,1095.83 
  467.27,1095.83 462.451,1095.83 460.042,1095.83 458.837,1095.83 458.034,1095.83 455.224,1095.83 452.814,1095.83 450.004,1095.83 449.201,1095.83 447.594,1095.83 
  446.39,1095.83 442.776,1095.83 440.768,1125.11 436.352,1125.11 435.549,1154.4 432.336,1154.4 429.124,1154.4 425.51,1154.4 423.503,1154.4 420.29,1154.4 
  418.684,1154.4 416.677,1183.69 414.669,1183.69 411.858,1183.69 409.449,1183.69 406.237,1212.98 404.229,1212.98 401.82,1212.98 399.009,1212.98 397.403,1212.98 
  395.797,1242.27 394.994,1242.27 393.789,1242.27 390.577,1242.27 389.372,1242.27 388.569,1271.56 386.562,1271.56 384.554,1271.56 380.94,1271.56 378.13,1271.56 
  374.917,1271.56 372.91,1271.56 371.705,1271.56 368.894,1271.56 368.091,1271.56 366.485,1271.56 365.682,1271.56 363.674,1271.56 362.871,1271.56 361.667,1271.56 
  359.659,1300.85 358.455,1300.85 357.651,1300.85 356.447,1300.85 354.439,1300.85 353.636,1300.85 352.03,1330.14 348.818,1330.14 347.613,1330.14 347.212,1330.14 
  345.606,1330.14 343.196,1330.14 342.795,1330.14 341.189,1330.14 338.78,1330.14 337.976,1330.14 337.173,1359.43 335.969,1359.43 
  335.166,1359.43 334.363,1359.43 333.56,1359.43 332.757,1359.43 332.355,1359.43 331.953,1359.43 330.749,1359.43 329.946,1359.43 329.143,1359.43 327.537,1359.43 
  326.734,1359.43 325.931,1359.43 325.529,1359.43 324.726,1359.43 323.923,1359.43 323.12,1359.43 322.718,1359.43 321.514,1359.43 
  320.711,1359.43 319.908,1359.43 318.703,1359.43 318.301,1359.43 317.498,1359.43 316.695,1359.43 315.892,1359.43 315.491,1359.43 314.688,1359.43 
  314.286,1359.43 313.885,1359.43 313.483,1359.43 313.082,1359.43 312.278,1359.43 311.877,1359.43 311.074,1359.43 
  310.672,1359.43 310.271,1359.43 309.066,1359.43 308.665,1359.43 307.46,1359.43 
  307.059,1359.43 306.657,1359.43 
  306.255,1388.71 305.854,1388.71 305.051,1388.71 304.649,1388.71 304.248,1388.71 303.846,1388.71 303.043,1388.71 
  302.642,1388.71 
  
  "/>
<polyline clip-path="url(#clip1702)" style="stroke:#c271d2; stroke-width:4; stroke-opacity:1; fill:none" points="
  2293.03,158.579 959.948,715.069 955.532,715.069 950.312,715.069 944.69,715.069 940.675,715.069 932.644,744.358 930.637,744.358 926.621,744.358 922.204,744.358 
  916.181,744.358 910.56,744.358 904.939,744.358 900.522,744.358 896.506,744.358 893.294,744.358 887.673,744.358 881.65,744.358 878.839,744.358 872.013,744.358 
  866.793,744.358 861.573,744.358 855.952,744.358 852.338,744.358 849.126,744.358 843.906,744.358 841.095,744.358 835.474,744.358 828.648,744.358 824.231,744.358 
  820.617,773.647 813.389,773.647 806.965,773.647 800.139,773.647 792.51,773.647 786.888,802.936 784.078,802.936 778.858,802.936 775.646,802.936 773.236,802.936 
  764.403,802.936 761.19,802.936 756.372,802.936 753.16,802.936 748.743,802.936 744.326,802.936 741.515,802.936 735.492,802.936 729.871,802.936 727.06,802.936 
  723.045,802.936 717.424,802.936 713.408,832.225 707.787,861.514 702.165,861.514 696.142,861.514 691.726,861.514 688.513,861.514 683.293,861.514 680.081,861.514 
  676.467,861.514 671.649,861.514 668.437,861.514 662.414,861.514 659.603,861.514 654.383,861.514 650.769,861.514 643.943,861.514 640.33,890.803 636.716,890.803 
  633.905,890.803 631.897,890.803 628.284,890.803 622.662,920.092 617.442,920.092 611.018,920.092 604.995,949.38 602.987,949.38 598.972,949.38 592.949,949.38 
  587.729,949.38 581.304,949.38 579.698,949.38 575.683,949.38 574.88,949.38 572.471,949.38 570.062,949.38 565.243,949.38 560.425,949.38 557.213,949.38 
  553.599,949.38 549.985,949.38 547.174,949.38 543.56,949.38 541.151,978.669 538.341,978.669 537.537,1007.96 532.719,1007.96 529.507,1007.96 526.295,1007.96 
  521.878,1007.96 518.666,1007.96 516.658,1007.96 513.044,1007.96 509.029,1007.96 506.218,1007.96 502.604,1007.96 500.195,1007.96 498.187,1007.96 494.172,1007.96 
  490.558,1007.96 488.551,1037.25 486.945,1037.25 483.732,1037.25 480.119,1037.25 477.709,1037.25 476.103,1037.25 474.899,1037.25 472.891,1037.25 470.883,1037.25 
  467.671,1037.25 465.262,1037.25 463.254,1037.25 461.247,1037.25 458.837,1037.25 455.625,1037.25 452.413,1037.25 449.602,1037.25 448.398,1037.25 446.791,1037.25 
  445.587,1037.25 444.784,1037.25 443.178,1037.25 440.768,1037.25 438.761,1037.25 436.753,1037.25 435.147,1037.25 433.541,1037.25 432.336,1037.25 430.73,1037.25 
  430.329,1037.25 428.321,1037.25 425.912,1037.25 423.904,1066.54 422.298,1066.54 419.889,1066.54 418.283,1095.83 417.48,1095.83 415.874,1095.83 415.07,1095.83 
  414.669,1095.83 414.267,1095.83 413.464,1095.83 411.858,1095.83 410.252,1095.83 407.843,1095.83 406.638,1095.83 405.032,1095.83 403.828,1095.83 403.025,1095.83 
  402.221,1095.83 400.615,1095.83 398.608,1095.83 397.403,1095.83 395.797,1095.83 394.994,1125.11 392.986,1125.11 391.38,1125.11 390.577,1154.4 390.176,1154.4 
  389.372,1154.4 388.168,1154.4 385.759,1154.4 384.554,1154.4 382.948,1154.4 381.743,1154.4 380.539,1154.4 380.137,1154.4 379.334,1183.69 378.13,1183.69 
  377.728,1183.69 376.523,1183.69 375.72,1183.69 373.311,1183.69 372.508,1183.69 371.705,1183.69 370.099,1183.69 368.894,1183.69 368.894,1212.98 368.091,1212.98 
  367.288,1212.98 366.485,1212.98 366.084,1212.98 364.478,1212.98 363.674,1212.98 362.871,1212.98 362.47,1212.98 361.265,1212.98 360.061,1212.98 359.659,1212.98 
  357.25,1212.98 356.045,1212.98 355.644,1242.27 354.038,1242.27 352.833,1242.27 352.03,1242.27 350.825,1242.27 
  350.424,1242.27 350.022,1271.56 349.621,1271.56 349.219,1271.56 348.416,1271.56 347.212,1271.56 346.81,1271.56 346.409,1271.56 
  346.007,1271.56 344.802,1271.56 343.999,1271.56 343.196,1271.56 342.795,1271.56 341.59,1271.56 341.189,1271.56 
  340.787,1271.56 340.386,1271.56 339.984,1271.56 339.583,1271.56 338.378,1271.56 337.976,1271.56 337.575,1271.56 
  337.173,1271.56 336.772,1271.56 335.969,1271.56 335.567,1271.56 335.166,1271.56 334.764,1271.56 334.764,1300.85 
  333.961,1300.85 333.56,1300.85 332.355,1300.85 331.953,1300.85 331.15,1300.85 
  330.749,1300.85 330.347,1300.85 329.946,1300.85 328.741,1300.85 328.34,1300.85 
  327.938,1300.85 327.135,1300.85 326.734,1300.85 326.332,1300.85 325.931,1300.85 
  325.529,1300.85 324.726,1300.85 324.324,1300.85 323.923,1300.85 323.521,1300.85 323.12,1300.85 322.718,1300.85 
  321.514,1300.85 320.711,1300.85 320.309,1300.85 319.908,1300.85 319.104,1300.85 
  318.703,1300.85 318.301,1300.85 317.9,1300.85 317.097,1300.85 316.695,1300.85 315.892,1300.85 315.089,1300.85 
  314.286,1300.85 313.082,1300.85 312.68,1300.85 312.278,1300.85 311.475,1300.85 
  310.672,1300.85 310.271,1300.85 309.869,1300.85 309.468,1300.85 309.066,1300.85 
  308.665,1330.14 308.263,1330.14 307.862,1330.14 
  307.46,1330.14 307.059,1330.14 306.657,1330.14 
  306.255,1330.14 305.854,1330.14 305.452,1330.14 
  305.452,1359.43 305.051,1359.43 304.649,1359.43 
  304.248,1359.43 
  
  
  
  303.846,1359.43 
  
  303.445,1359.43 
  303.043,1359.43 303.043,1388.71 
  
  
  302.642,1388.71 
  
  
  
  "/>
<path clip-path="url(#clip1700)" d="
M1387.82 1281.62 L2280.76 1281.62 L2280.76 979.219 L1387.82 979.219  Z
  " fill="#ffffff" fill-rule="evenodd" fill-opacity="1"/>
<polyline clip-path="url(#clip1700)" style="stroke:#000000; stroke-width:4; stroke-opacity:1; fill:none" points="
  1387.82,1281.62 2280.76,1281.62 2280.76,979.219 1387.82,979.219 1387.82,1281.62 
  "/>
<polyline clip-path="url(#clip1700)" style="stroke:#009af9; stroke-width:4; stroke-opacity:1; fill:none" points="
  1411.82,1039.7 1555.82,1039.7 
  "/>
<g clip-path="url(#clip1700)">
<text style="fill:#000000; fill-opacity:1; font-family:Arial,Helvetica Neue,Helvetica,sans-serif; font-size:48px; text-anchor:start;" transform="rotate(0, 1579.82, 1057.2)" x="1579.82" y="1057.2">M auc: 0.751954513148544</text>
</g>
<polyline clip-path="url(#clip1700)" style="stroke:#e26f46; stroke-width:4; stroke-opacity:1; fill:none" points="
  1411.82,1100.18 1555.82,1100.18 
  "/>
<g clip-path="url(#clip1700)">
<text style="fill:#000000; fill-opacity:1; font-family:Arial,Helvetica Neue,Helvetica,sans-serif; font-size:48px; text-anchor:start;" transform="rotate(0, 1579.82, 1117.68)" x="1579.82" y="1117.68">Mp auc: 0.8296812270692893</text>
</g>
<polyline clip-path="url(#clip1700)" style="stroke:#3da44d; stroke-width:4; stroke-opacity:1; fill:none" points="
  1411.82,1160.66 1555.82,1160.66 
  "/>
<g clip-path="url(#clip1700)">
<text style="fill:#000000; fill-opacity:1; font-family:Arial,Helvetica Neue,Helvetica,sans-serif; font-size:48px; text-anchor:start;" transform="rotate(0, 1579.82, 1178.16)" x="1579.82" y="1178.16">U auc: 0.6516788643654328</text>
</g>
<polyline clip-path="url(#clip1700)" style="stroke:#c271d2; stroke-width:4; stroke-opacity:1; fill:none" points="
  1411.82,1221.14 1555.82,1221.14 
  "/>
<g clip-path="url(#clip1700)">
<text style="fill:#000000; fill-opacity:1; font-family:Arial,Helvetica Neue,Helvetica,sans-serif; font-size:48px; text-anchor:start;" transform="rotate(0, 1579.82, 1238.64)" x="1579.82" y="1238.64">Up auc: 0.6416037572754005</text>
</g>
</svg>
